<?xml version="1.0" encoding="utf-8"?>
<!-- Generator: Adobe Illustrator 26.0.3, SVG Export Plug-In . SVG Version: 6.00 Build 0)  -->
<svg version="1.1" id="Ebene_1" xmlns="http://www.w3.org/2000/svg" xmlns:xlink="http://www.w3.org/1999/xlink" x="0px" y="0px"
	 viewBox="0 0 16 16" style="enable-background:new 0 0 16 16;" xml:space="preserve">
<style type="text/css">
	.st0{fill:#FFFFFF;}
	.st1{fill:#999999;}
	.st2{fill:#663399;}
	.st3{fill:#0D6EFD;}
	.st4{fill:#58AAFF;}
	.st5{fill:#343A40;}
	.st6{fill:#6C757D;}
</style>
<path class="st0" d="M1,1h14v14H1V1z"/>
<path class="st1" d="M1,1v14h14V1H1z M2,2h12v12H2V2z"/>
<path class="st2" d="M24.3,5.4h4.9v6.9h-4.9V5.4z"/>
<path class="st3" d="M3,5h2.5v1H3V5z"/>
<path class="st4" d="M6.3,5h2.5v1H6.3V5z"/>
<path class="st4" d="M9.5,5H12v1H9.5V5z"/>
<path class="st5" d="M3,3h10v1H3V3z"/>
<path class="st6" d="M3,7h10v1H3V7z M3,9h10v1H3V9z M3,11h7v1H3V11z"/>
</svg>
