<?xml version="1.0" encoding="utf-8"?>
<!-- Generator: Adobe Illustrator 26.0.3, SVG Export Plug-In . SVG Version: 6.00 Build 0)  -->
<svg version="1.1" id="Ebene_1" xmlns="http://www.w3.org/2000/svg" xmlns:xlink="http://www.w3.org/1999/xlink" x="0px" y="0px"
	 viewBox="0 0 16 16" style="enable-background:new 0 0 16 16;" xml:space="preserve">
<style type="text/css">
	.st0{fill:#FFFFFF;}
	.st1{fill:#999999;}
	.st2{fill:#E0A800;}
	.st3{fill:#343A40;}
</style>
<path class="st0" d="M1,1h14v14H1V1z"/>
<path class="st1" d="M1,1v14h14V1H1z M2,2h12v12H2V2z"/>
<path class="st2" d="M3,5h3v3H3V5z"/>
<path class="st2" d="M6.5,5h3v3h-3V5z"/>
<path class="st2" d="M10,5h3v3h-3V5z"/>
<path class="st2" d="M3,8.6h3v3H3V8.6z"/>
<path class="st2" d="M6.5,8.6h3v3h-3V8.6z"/>
<path class="st2" d="M10,8.6h3v3h-3V8.6z"/>
<path class="st3" d="M3,3h10v1H3V3z"/>
</svg>
