<?xml version="1.0" encoding="utf-8"?>
<!-- Generator: Adobe Illustrator 26.0.3, SVG Export Plug-In . SVG Version: 6.00 Build 0)  -->
<svg version="1.1" id="Ebene_1" xmlns="http://www.w3.org/2000/svg" xmlns:xlink="http://www.w3.org/1999/xlink" x="0px" y="0px"
	 viewBox="0 0 16 16" style="enable-background:new 0 0 16 16;" xml:space="preserve">
<style type="text/css">
	.st0{fill:#FFFFFF;}
	.st1{fill:#999999;}
	.st2{fill:#343A40;}
	.st3{fill:#E2E6EA;}
	.st4{fill:#E0A800;}
	.st5{fill:#007BFF;}
</style>
<path class="st0" d="M1,1h14v14H1V1z"/>
<path class="st1" d="M1,1v14h14V1H1z M2,2h12v12H2V2z"/>
<path class="st2" d="M3,3h10v1H3V3z"/>
<path class="st3" d="M3,5h3v3.5H3V5z"/>
<path class="st3" d="M10,5h3v3.5h-3V5z"/>
<path class="st3" d="M6.5,5h3v3.5h-3V5z"/>
<path class="st3" d="M3,9h3v3.5H3V9z"/>
<path class="st3" d="M10,9h3v3.5h-3V9z"/>
<path class="st3" d="M6.5,9h3v3.5h-3V9z"/>
<rect x="3" y="5" class="st4" width="3" height="1.3"/>
<rect x="6.5" y="5" class="st4" width="3" height="1.3"/>
<rect x="10" y="5" class="st4" width="3" height="1.3"/>
<rect x="3" y="9" class="st4" width="3" height="1.3"/>
<rect x="6.5" y="9" class="st4" width="3" height="1.3"/>
<rect x="10" y="9" class="st4" width="3" height="1.3"/>
<rect x="3.3" y="7.7" class="st5" width="1.5" height="0.5"/>
<rect x="6.8" y="7.7" class="st5" width="1.5" height="0.5"/>
<rect x="10.3" y="7.7" class="st5" width="1.5" height="0.5"/>
<rect x="3.3" y="11.7" class="st5" width="1.5" height="0.5"/>
<rect x="6.8" y="11.7" class="st5" width="1.5" height="0.5"/>
<rect x="10.3" y="11.7" class="st5" width="1.5" height="0.5"/>
</svg>
